<svg xmlns="http://www.w3.org/2000/svg" width="16" height="16" viewBox="0 0 16 16"><path fill="#277AC0" d="M15.86 12.437c-.586-1.105-2.743-2.369-2.743-2.369-.488-.278-1.077-.31-1.355.187 0 0-.7.84-.879.961-.814.552-1.568.53-2.33-.231l-1.769-1.77-1.77-1.769c-.76-.76-.782-1.515-.23-2.33.12-.178.96-.878.96-.878.497-.28.466-.868.188-1.356 0 0-1.264-2.156-2.37-2.741A1.212 1.212 0 0 0 2.14.355l-.782.781C-1.12 3.615.1 6.413 2.577 8.892l2.266 2.265 2.265 2.265c2.48 2.479 5.277 3.7 7.756 1.22l.781-.78c.376-.377.463-.955.214-1.425z" opacity=".6"/></svg>