<svg xmlns="http://www.w3.org/2000/svg" width="24" height="24" viewBox="0 0 24 24"><path fill="#7AACD6" fill-rule="evenodd" d="M16 2v4h6V2a2 2 0 0 1 2 2v18a2 2 0 0 1-2 2H2a2 2 0 0 1-2-2V4a2 2 0 0 1 2-2v4h6V2h8zM2 8v14h20V8H2zm3-8a1 1 0 0 1 1 1v3a1 1 0 1 1-2 0V1a1 1 0 0 1 1-1zm14 0a1 1 0 0 1 1 1v3a1 1 0 0 1-2 0V1a1 1 0 0 1 1-1zM5 10h2a1 1 0 0 1 1 1v2a1 1 0 0 1-1 1H5a1 1 0 0 1-1-1v-2a1 1 0 0 1 1-1zm6 0h2a1 1 0 0 1 1 1v2a1 1 0 0 1-1 1h-2a1 1 0 0 1-1-1v-2a1 1 0 0 1 1-1zm6 0h2a1 1 0 0 1 1 1v2a1 1 0 0 1-1 1h-2a1 1 0 0 1-1-1v-2a1 1 0 0 1 1-1zM5 16h2a1 1 0 0 1 1 1v2a1 1 0 0 1-1 1H5a1 1 0 0 1-1-1v-2a1 1 0 0 1 1-1zm6 0h2a1 1 0 0 1 1 1v2a1 1 0 0 1-1 1h-2a1 1 0 0 1-1-1v-2a1 1 0 0 1 1-1zm6 0h2a1 1 0 0 1 1 1v2a1 1 0 0 1-1 1h-2a1 1 0 0 1-1-1v-2a1 1 0 0 1 1-1z"/></svg>