<svg width="19" height="24" viewBox="0 0 19 24" xmlns="http://www.w3.org/2000/svg"><title>Icons / Pad</title><g fill="#277AC0"><path d="M11.953 1.406h-1.32l-.166-.468A1.41 1.41 0 0 0 9.141 0a1.41 1.41 0 0 0-1.327.938l-.166.468h-1.32c-.777 0-1.406.63-1.406 1.407v.703c0 .388.315.703.703.703h7.031a.703.703 0 0 0 .703-.703v-.704c0-.776-.63-1.406-1.406-1.406z"/><path d="M16.172 2.813h-1.406v.703a2.112 2.112 0 0 1-2.11 2.109H5.625a2.112 2.112 0 0 1-2.11-2.11v-.703H2.11A2.114 2.114 0 0 0 0 4.922V21.89C0 23.054.946 24 2.11 24h14.062c1.163 0 2.11-.946 2.11-2.11V4.923c0-1.163-.947-2.11-2.11-2.11z"/></g></svg>