<svg xmlns="http://www.w3.org/2000/svg" width="24" height="21" viewBox="0 0 24 21"><path fill="#277AC0" d="M21.2 1.335c-.267-.786-1.067-1.31-1.867-1.31H4.667c-.934 0-1.6.524-1.867 1.31L0 9.191v10.474c0 .786.533 1.31 1.333 1.31h1.334c.8 0 1.333-.524 1.333-1.31v-1.31h16v1.31c0 .786.533 1.31 1.333 1.31h1.334c.8 0 1.333-.524 1.333-1.31V9.191l-2.8-7.856zM4.667 14.428c-1.067 0-2-.917-2-1.964s.933-1.964 2-1.964c1.066 0 2 .917 2 1.964s-.934 1.964-2 1.964zm14.666 0c-1.066 0-2-.917-2-1.964s.934-1.964 2-1.964c1.067 0 2 .917 2 1.964s-.933 1.964-2 1.964zM2.667 7.88l2-5.891h14.666l2 5.891H2.667z"/></svg>