<svg xmlns="http://www.w3.org/2000/svg" width="13" height="16" viewBox="0 0 13 16"><path fill="#FFF" d="M1.579 15.235c.02.428.402.765.868.765h8.106c.466 0 .849-.337.868-.765L12 4H1l.579 11.235zM9 6.321C9 6.144 9.124 6 9.278 6h.444c.154 0 .278.144.278.321v6.358c0 .177-.124.321-.278.321h-.444C9.124 13 9 12.856 9 12.679V6.32zm-3 0C6 6.144 6.124 6 6.278 6h.444c.154 0 .278.144.278.321v6.358c0 .177-.124.321-.278.321h-.444C6.124 13 6 12.856 6 12.679V6.32zm-3 0C3 6.144 3.124 6 3.278 6h.444c.154 0 .278.144.278.321v6.358c0 .177-.124.321-.278.321h-.444C3.124 13 3 12.856 3 12.679V6.32zM12.45.848c.303 0 .55.232.55.52V3H0V1.367c0-.287.247-.52.55-.52h3.781V.174c0-.095.083-.173.184-.173h3.97c.101 0 .184.078.184.173v.675h3.78z"/></svg>