<svg xmlns="http://www.w3.org/2000/svg" width="18" height="18" viewBox="0 0 18 18"><g fill="none" fill-rule="evenodd"><path fill="#277AC0" d="M9 16.213l-2.003 1.561L5.87 15.5l-2.481.537-.028-2.539-2.47-.592 1.077-2.3L0 9l1.968-1.605-1.077-2.3 2.47-.592.028-2.54 2.481.538L6.997.226 9 1.786l2.003-1.56L12.13 2.5l2.481-.537.028 2.539 2.47.592-1.077 2.3L18 9l-1.968 1.605 1.077 2.3-2.47.592-.028 2.54-2.481-.538-1.127 2.275z"/><path stroke="#FFF" stroke-width="2" d="M12.84 6.68l-4.95 4.95L5.062 8.8"/></g></svg>