<svg xmlns="http://www.w3.org/2000/svg" width="24" height="24" viewBox="0 0 24 24"><g fill="none" fill-rule="evenodd"><path d="M0 0h24v24H0z"/><path fill="#FFF" fill-rule="nonzero" d="M21.824 17.547c-.731-1.382-3.427-2.962-3.427-2.962-.61-.348-1.346-.386-1.694.234 0 0-.876 1.05-1.1 1.201-1.017.69-1.96.663-2.911-.289L10.48 13.52l-2.212-2.212c-.951-.952-.978-1.894-.289-2.912.151-.223 1.202-1.099 1.202-1.099.62-.348.581-1.084.233-1.694 0 0-1.58-2.696-2.961-3.427a1.515 1.515 0 0 0-1.78.268l-.976.976c-3.099 3.1-1.573 6.596 1.525 9.695l2.832 2.831 2.831 2.832c3.099 3.098 6.597 4.624 9.695 1.525l.977-.976c.47-.471.578-1.193.267-1.78z"/></g></svg>