<svg xmlns="http://www.w3.org/2000/svg" width="16" height="16" viewBox="0 0 16 16"><path fill="#277AC0" d="M15.415 6.835L13.83 6.57a5.97 5.97 0 0 0-.502-1.34l1.014-1.259a.7.7 0 0 0-.021-.905l-.63-.71a.7.7 0 0 0-.897-.127l-1.355.852a5.964 5.964 0 0 0-2-.903L9.174.585A.7.7 0 0 0 8.484 0h-.95a.698.698 0 0 0-.69.585l-.267 1.594a5.96 5.96 0 0 0-1.682.699l-1.29-.92a.7.7 0 0 0-.901.074l-.671.672a.7.7 0 0 0-.074.902l.922 1.291a5.976 5.976 0 0 0-.694 1.67l-1.602.268a.7.7 0 0 0-.585.69v.95a.7.7 0 0 0 .585.69l1.602.267c.122.492.297.96.53 1.396l-1.01 1.25a.7.7 0 0 0 .022.905l.63.71a.7.7 0 0 0 .897.128l1.375-.864c.582.398 1.24.69 1.946.864l.267 1.594a.698.698 0 0 0 .69.585h.95a.7.7 0 0 0 .69-.585l.265-1.594a5.952 5.952 0 0 0 1.663-.688l1.343.96c.277.199.66.167.901-.075l.672-.672a.698.698 0 0 0 .073-.901l-.956-1.34a5.946 5.946 0 0 0 .695-1.676l1.585-.264a.699.699 0 0 0 .585-.69v-.95a.7.7 0 0 0-.585-.69zM8.025 11a3 3 0 1 1 .001-6.001 3 3 0 0 1 0 6z" opacity=".6"/></svg>