<svg width="24" height="24" viewBox="0 0 24 24" xmlns="http://www.w3.org/2000/svg"><title>Icons / Spares</title><path d="M23.097 10.241l-2.375-.396a8.945 8.945 0 0 0-.752-2.01l1.52-1.884a1.048 1.048 0 0 0-.032-1.357l-.945-1.063a1.049 1.049 0 0 0-1.343-.191l-2.03 1.276a8.936 8.936 0 0 0-2.997-1.352L13.745.876A1.048 1.048 0 0 0 12.711 0h-1.423c-.513 0-.952.37-1.033.876l-.4 2.389a8.931 8.931 0 0 0-2.52 1.047L5.402 2.934a1.05 1.05 0 0 0-1.351.111L3.046 4.052a1.049 1.049 0 0 0-.11 1.35l1.38 1.936A8.954 8.954 0 0 0 3.279 9.84l-2.402.401c-.504.083-.876.52-.876 1.035v1.422c0 .513.372.95.876 1.034l2.402.401c.181.736.444 1.44.794 2.091L2.56 18.098a1.05 1.05 0 0 0 .032 1.356l.944 1.063c.342.385.91.465 1.344.192l2.06-1.294a8.924 8.924 0 0 0 2.916 1.294l.4 2.388c.081.505.52.876 1.033.876h1.423c.513 0 .95-.37 1.034-.876l.398-2.388a8.918 8.918 0 0 0 2.492-1.03l2.012 1.437c.416.298.988.251 1.35-.112l1.007-1.006c.362-.363.41-.934.11-1.351l-1.432-2.008a8.91 8.91 0 0 0 1.04-2.51l2.376-.397c.506-.083.876-.52.876-1.034v-1.423c0-.513-.371-.95-.877-1.034zm-11.072 6.24a4.496 4.496 0 0 1 0-8.99 4.496 4.496 0 0 1 0 8.99z" fill="#277AC0"/></svg>